HIERARCHY
ROOT Hips
{
	OFFSET 0.000000 0.000000 0.000000
	CHANNELS 6 Xposition Yposition Zposition Zrotation Yrotation Xrotation 
	JOINT LowerBack
	{
		OFFSET 0.000000 0.000000 0.000000
		CHANNELS 3 Zrotation Yrotation Xrotation
		JOINT Spine
		{
			OFFSET 0.028270 2.035590 -0.193380
			CHANNELS 3 Zrotation Yrotation Xrotation
			JOINT Spine1
			{
				OFFSET 0.056720 2.048850 -0.042750
				CHANNELS 3 Zrotation Yrotation Xrotation
				JOINT Neck
				{
					OFFSET 0.000000 0.000000 0.000000
					CHANNELS 3 Zrotation Yrotation Xrotation
					JOINT Neck1
					{
						OFFSET -0.054170 1.746240 0.172020
						CHANNELS 3 Zrotation Yrotation Xrotation
						JOINT Head
						{
							OFFSET 0.104070 1.761360 -0.123970
							CHANNELS 3 Zrotation Yrotation Xrotation
							End Site
							{
								OFFSET 0.000000 0.000000 0.000000
							}
						}
					}
				}
				JOINT LeftShoulder
				{
					OFFSET 0.000000 0.000000 0.000000
					CHANNELS 3 Zrotation Yrotation Xrotation
					JOINT LeftArm
					{
						OFFSET 3.362410 1.200890 -0.311210
						CHANNELS 3 Zrotation Yrotation Xrotation
						JOINT LeftForeArm
						{
							OFFSET 4.983000 -0.000000 -0.000000
							CHANNELS 3 Zrotation Yrotation Xrotation
							JOINT LeftHand
							{
								OFFSET 3.483560 -0.000000 -0.000000
								CHANNELS 3 Zrotation Yrotation Xrotation
								JOINT LeftFingerBase
								{
									OFFSET 0.000000 0.000000 0.000000
									CHANNELS 3 Zrotation Yrotation Xrotation
									JOINT LeftHandIndex1
									{
										OFFSET 0.715260 -0.000000 -0.000000
										CHANNELS 3 Zrotation Yrotation Xrotation
										End Site
										{
											OFFSET 0.000000 0.000000 0.000000
										}
									}
								}
								JOINT LThumb
								{
									OFFSET 0.000000 0.000000 0.000000
									CHANNELS 3 Zrotation Yrotation Xrotation
									End Site
									{
										OFFSET 0.000000 0.000000 0.000000
									}
								}
							}
						}
					}
				}
				JOINT RightShoulder
				{
					OFFSET 0.000000 0.000000 0.000000
					CHANNELS 3 Zrotation Yrotation Xrotation
					JOINT RightArm
					{
						OFFSET -3.136600 1.374050 -0.404650
						CHANNELS 3 Zrotation Yrotation Xrotation
						JOINT RightForeArm
						{
							OFFSET -5.241900 -0.000000 -0.000000
							CHANNELS 3 Zrotation Yrotation Xrotation
							JOINT RightHand
							{
								OFFSET -3.444170 -0.000000 -0.000000
								CHANNELS 3 Zrotation Yrotation Xrotation
								JOINT RightFingerBase
								{
									OFFSET 0.000000 0.000000 0.000000
									CHANNELS 3 Zrotation Yrotation Xrotation
									JOINT RightHandIndex1
									{
										OFFSET -0.622530 -0.000000 -0.000000
										CHANNELS 3 Zrotation Yrotation Xrotation
										End Site
										{
											OFFSET 0.000000 0.000000 0.000000
										}
									}
								}
								JOINT RThumb
								{
									OFFSET 0.000000 0.000000 0.000000
									CHANNELS 3 Zrotation Yrotation Xrotation
									End Site
									{
										OFFSET 0.000000 0.000000 0.000000
									}
								}
							}
						}
					}
				}
			}
		}
	}
}
}
MOTION
Frames: 12
Frame Time: 0.008333
4.007436 17.029991 0.938036 3.264367 30.852746 14.973355 6.441820 -3.981106 4.173725 0.489722 -4.265205 -1.364127 -7.003840 -4.238235 3.007509 12.834063 -10.712305 -7.548428 -3.227828 -0.234345 -0.092141 0.000000 0.000000 0.000000 0.068199 8.617864 3.470900 -19.897186 -16.637545 -7.169273 -2.227508 -55.310956 0.043975 -15.136068 2.495719 -0.310676 0.035246 0.158831 -0.000000 0.000000 0.000000 0.000000 0.000000 0.000000 0.000000 19.010500 -10.558362 0.515394 63.756828 -7.491684 -19.672699 4.461141 17.990542 0.007629 10.401115 2.800708 0.255311 0.071307 -0.020675 0.000000 0.000000 0.000000 0.000000 0.000000 0.000000 0.000000 
4.059991 17.044409 1.058361 2.976401 30.398301 14.744230 6.933319 -3.911588 4.208949 0.585868 -4.215223 -1.376280 -7.007963 -4.190698 2.965765 12.767175 -10.538231 -7.490396 -3.258552 -0.237149 -0.078085 0.000000 0.000000 0.000000 -0.071706 8.647239 3.429677 -20.854690 -16.344184 -6.378576 -2.213260 -56.141476 0.043230 -15.222010 2.441483 -0.305669 0.033868 0.155405 0.000000 0.000000 0.000000 0.000000 0.000000 0.000000 0.000000 18.962780 -10.345848 0.536329 63.680269 -6.940309 -19.649590 4.465947 17.951293 0.007736 10.441981 2.790714 0.255514 0.070775 -0.021371 -0.000000 0.000000 0.000000 0.000000 0.000000 0.000000 0.000000 
4.107146 17.059861 1.177712 2.738649 29.910875 14.539206 7.324227 -3.838056 4.260873 0.659852 -4.155880 -1.384526 -7.013019 -4.133473 2.919466 12.731779 -10.338625 -7.416990 -3.286945 -0.239876 -0.060430 0.000000 0.000000 0.000000 -0.135898 8.636519 3.391267 -21.819313 -16.000458 -5.527423 -2.202090 -56.885317 0.042299 -15.316865 2.391571 -0.301366 0.032778 0.151202 -0.000000 0.000000 0.000000 0.000000 0.000000 0.000000 0.000000 18.935834 -10.104549 0.559515 63.624832 -6.354419 -19.531848 4.467153 17.947529 0.007824 10.489117 2.775852 0.255417 0.070012 -0.022037 0.000000 0.000000 0.000000 0.000000 0.000000 0.000000 0.000000 
4.148888 17.075857 1.296161 2.555999 29.397112 14.363485 7.610620 -3.762130 4.321952 0.711110 -4.089067 -1.389769 -7.019467 -4.068366 2.871127 12.727853 -10.121874 -7.330907 -3.312587 -0.242473 -0.039737 0.000000 0.000000 0.000000 -0.134429 8.593875 3.356257 -22.762889 -15.619914 -4.617120 -2.193943 -57.532539 0.041160 -15.415805 2.349860 -0.298368 0.031900 0.146197 0.000000 0.000000 0.000000 0.000000 0.000000 0.000000 0.000000 18.931713 -9.843851 0.583400 63.588012 -5.735435 -19.296498 4.465156 17.994708 0.007896 10.544606 2.759439 0.255320 0.069002 -0.022654 0.000000 0.000000 0.000000 0.000000 0.000000 0.000000 0.000000 
4.185495 17.092093 1.413789 2.428087 28.864013 14.219909 7.798223 -3.685492 4.385343 0.741094 -4.017144 -1.392216 -7.028050 -3.997566 2.825548 12.752350 -9.894035 -7.237303 -3.334981 -0.244843 -0.017337 0.000000 0.000000 0.000000 -0.094674 8.550781 3.325689 -23.641372 -15.252235 -3.642845 -2.189837 -58.063740 0.039806 -15.509921 2.317744 -0.296571 0.031049 0.140486 -0.000000 0.000000 0.000000 0.000000 0.000000 0.000000 0.000000 18.949942 -9.570301 0.604960 63.566578 -5.086006 -18.933896 4.460404 18.111276 0.007945 10.613123 2.741910 0.255523 0.067719 -0.023189 0.000000 0.000000 0.000000 0.000000 0.000000 0.000000 0.000000 
4.217338 17.108311 1.530640 2.354735 28.319678 14.109298 7.891964 -3.609309 4.444311 0.751147 -3.941941 -1.393497 -7.038629 -3.922977 2.782599 12.800544 -9.659097 -7.136517 -3.354564 -0.247039 0.006856 0.000000 0.000000 0.000000 -0.022642 8.501501 3.299993 -24.451668 -14.890183 -2.612873 -2.189841 -58.483598 0.038223 -15.596535 2.298806 -0.296477 0.030099 0.134053 0.000000 0.000000 0.000000 0.000000 0.000000 0.000000 0.000000 18.988418 -9.288685 0.623710 63.556327 -4.414144 -18.435171 4.453018 18.312851 0.007977 10.696861 2.726664 0.256227 0.066156 -0.023641 -0.000000 0.000000 0.000000 0.000000 0.000000 0.000000 0.000000 
4.245009 17.124361 1.646775 2.332918 27.771896 14.030075 7.900298 -3.534703 4.494263 0.743564 -3.865234 -1.395034 -7.049864 -3.846538 2.741612 12.865438 -9.426653 -7.028799 -3.371582 -0.249102 0.032956 0.000000 0.000000 0.000000 0.079769 8.430813 3.278316 -25.207914 -14.509873 -1.542741 -2.193481 -58.805756 0.036402 -15.674906 2.295931 -0.298585 0.028995 0.126883 -0.000000 0.000000 0.000000 0.000000 0.000000 0.000000 0.000000 19.041749 -9.010258 0.639961 63.550223 -3.719623 -17.783280 4.442994 18.605593 0.008007 10.791446 2.721867 0.258131 0.064342 -0.024044 -0.000000 0.000000 0.000000 0.000000 0.000000 0.000000 0.000000 
4.269225 17.140264 1.762134 2.355832 27.227010 13.977736 7.837773 -3.462314 4.532863 0.721695 -3.788432 -1.397224 -7.061135 -3.769704 2.703722 12.938932 -9.199450 -6.916264 -3.386289 -0.251037 0.060443 0.000000 0.000000 0.000000 0.195580 8.349127 3.260758 -25.903353 -14.127588 -0.438662 -2.201404 -59.029439 0.034364 -15.740979 2.308924 -0.302792 0.027590 0.119081 0.000000 0.000000 0.000000 0.000000 0.000000 0.000000 0.000000 19.103851 -8.738034 0.652656 63.543019 -3.006137 -16.982704 4.430170 18.998940 0.008041 10.896779 2.729903 0.261536 0.062277 -0.024414 -0.000000 0.000000 0.000000 0.000000 0.000000 0.000000 0.000000 
4.290762 17.156129 1.876682 2.417193 26.688933 13.947204 7.718032 -3.392605 4.559703 0.688673 -3.712590 -1.400428 -7.071513 -3.693625 2.668734 13.012598 -8.977762 -6.799540 -3.399224 -0.252885 0.089191 0.000000 0.000000 0.000000 0.312691 8.259906 3.247128 -26.544405 -13.747179 0.690346 -2.214066 -59.159826 0.032126 -15.792664 2.336585 -0.308699 0.025770 0.110749 -0.000000 0.000000 0.000000 0.000000 0.000000 0.000000 0.000000 19.168179 -8.472519 0.661396 63.528858 -2.278971 -16.042853 4.414070 19.498146 0.008081 11.010172 2.752746 0.266541 0.059972 -0.024776 0.000000 0.000000 0.000000 0.000000 0.000000 0.000000 0.000000 
4.310368 17.172127 1.990308 2.509156 26.160212 13.931681 7.554850 -3.325541 4.576451 0.647718 -3.638121 -1.404664 -7.079418 -3.618843 2.636173 13.078172 -8.765697 -6.679468 -3.410626 -0.254665 0.119019 0.000000 0.000000 0.000000 0.425523 8.160494 3.236369 -27.147444 -13.362037 1.831909 -2.231460 -59.205811 0.029718 -15.830195 2.377211 -0.316306 0.023505 0.101984 -0.000000 0.000000 0.000000 0.000000 0.000000 0.000000 0.000000 19.227199 -8.218244 0.666524 63.501229 -1.535818 -14.967018 4.394183 20.100278 0.008141 11.124948 2.794542 0.273547 0.057453 -0.025185 0.000000 0.000000 0.000000 0.000000 0.000000 0.000000 0.000000 
4.328619 17.188438 2.102909 2.625381 25.640527 13.925303 7.359932 -3.260654 4.585649 0.601436 -3.564863 -1.409859 -7.083776 -3.545299 2.605008 13.128672 -8.560757 -6.555990 -3.420926 -0.256410 0.149943 0.000000 0.000000 0.000000 0.527418 8.052570 3.228033 -27.726001 -12.971860 2.976971 -2.253890 -59.173504 0.027172 -15.854212 2.428116 -0.325111 0.020751 0.092901 -0.000000 0.000000 0.000000 0.000000 0.000000 0.000000 0.000000 19.274405 -7.972205 0.668360 63.455974 -0.781321 -13.773304 4.369813 20.803942 0.008223 11.237815 2.854849 0.282354 0.054726 -0.025682 0.000000 0.000000 0.000000 0.000000 0.000000 0.000000 0.000000 
4.346055 17.205193 2.214395 2.759275 25.127686 13.921851 7.143160 -3.197206 4.590854 0.552024 -3.492246 -1.415722 -7.083484 -3.472518 2.574186 13.158664 -8.361733 -6.429203 -3.430368 -0.258139 0.181929 0.000000 0.000000 0.000000 0.615822 7.935931 3.221299 -28.296167 -12.572085 4.116561 -2.281369 -59.070353 0.024527 -15.866403 2.486105 -0.334714 0.017520 0.083605 0.000000 0.000000 0.000000 0.000000 0.000000 0.000000 0.000000 19.304193 -7.732654 0.667609 63.389019 -0.015957 -12.476453 4.340295 21.602719 0.008332 11.343785 2.932321 0.292861 0.051804 -0.026315 0.000000 0.000000 0.000000 0.000000 0.000000 0.000000 0.000000 
